<svg width="13" height="11" viewBox="0 0 13 11" fill="none" xmlns="http://www.w3.org/2000/svg">
<path d="M12.5296 6.02976L8.02965 10.5298C7.88875 10.6707 7.69766 10.7498 7.4984 10.7498C7.29914 10.7498 7.10804 10.6707 6.96715 10.5298C6.82625 10.3889 6.7471 10.1978 6.7471 9.99851C6.7471 9.79925 6.82625 9.60815 6.96715 9.46726L10.1865 6.24913H0.999023C0.800111 6.24913 0.609346 6.17011 0.468693 6.02946C0.328041 5.88881 0.249023 5.69804 0.249023 5.49913C0.249023 5.30022 0.328041 5.10945 0.468693 4.9688C0.609346 4.82815 0.800111 4.74913 0.999023 4.74913H10.1865L6.9684 1.52913C6.8275 1.38824 6.74835 1.19714 6.74835 0.997883C6.74835 0.798625 6.8275 0.607529 6.9684 0.466633C7.10929 0.325737 7.30039 0.246582 7.49965 0.246582C7.69891 0.246582 7.89 0.325737 8.0309 0.466633L12.5309 4.96663C12.6008 5.0364 12.6563 5.1193 12.6941 5.21057C12.7319 5.30184 12.7513 5.39967 12.7512 5.49845C12.7511 5.59724 12.7314 5.69503 12.6934 5.78621C12.6554 5.87738 12.5997 5.96015 12.5296 6.02976Z" fill="white"/>
</svg>
