<svg width="1140" height="364" viewBox="0 0 1140 364" fill="none" xmlns="http://www.w3.org/2000/svg">
<g clip-path="url(#clip0_6_2)">
<g opacity="0.6">
<path d="M0 73.4255C91.7554 18.7715 322.351 -57.7441 510.691 73.4255C746.116 237.387 1055.79 147.026 1140 73.4255" stroke="#3C7C98" stroke-opacity="0.1"/>
<path d="M0 81.3239C91.7554 26.67 322.351 -49.8456 510.691 81.3239C746.116 245.286 1055.79 154.924 1140 81.3239" stroke="#3C7C98" stroke-opacity="0.1"/>
<path d="M0 89.2234C91.7554 34.5694 322.351 -41.9462 510.691 89.2234C746.116 253.185 1055.79 162.824 1140 89.2234" stroke="#3C7C98" stroke-opacity="0.1"/>
<path d="M0 97.1223C91.7554 42.4683 322.351 -34.0473 510.691 97.1223C746.116 261.084 1055.79 170.723 1140 97.1223" stroke="#3C7C98" stroke-opacity="0.1"/>
<path d="M0 105.02C91.7554 50.3658 322.351 -26.1498 510.691 105.02C746.116 268.982 1055.79 178.62 1140 105.02" stroke="#3C7C98" stroke-opacity="0.1"/>
<path d="M0 112.919C91.7554 58.2647 322.351 -18.2509 510.691 112.919C746.116 276.881 1055.79 186.519 1140 112.919" stroke="#3C7C98" stroke-opacity="0.1"/>
<path d="M0 120.818C91.7554 66.1641 322.351 -10.3515 510.691 120.818C746.116 284.78 1055.79 194.418 1140 120.818" stroke="#3C7C98" stroke-opacity="0.1"/>
<path d="M0 128.717C91.7554 74.0625 322.351 -2.45305 510.691 128.717C746.116 292.678 1055.79 202.317 1140 128.717" stroke="#3C7C98" stroke-opacity="0.1"/>
<path d="M0 136.615C91.7554 81.9615 322.351 5.44586 510.691 136.615C746.116 300.577 1055.79 210.216 1140 136.615" stroke="#3C7C98" stroke-opacity="0.1"/>
<path d="M0 144.514C91.7554 89.8599 322.351 13.3443 510.691 144.514C746.116 308.476 1055.79 218.114 1140 144.514" stroke="#3C7C98" stroke-opacity="0.1"/>
<path d="M0 152.413C91.7554 97.7593 322.351 21.2437 510.691 152.413C746.116 316.375 1055.79 226.014 1140 152.413" stroke="#3C7C98" stroke-opacity="0.1"/>
<path d="M0 160.311C91.7554 105.657 322.351 29.1417 510.691 160.311C746.116 324.273 1055.79 233.912 1140 160.311" stroke="#3C7C98" stroke-opacity="0.1"/>
<path d="M0 168.21C91.7554 113.556 322.351 37.0402 510.691 168.21C746.116 332.172 1055.79 241.81 1140 168.21" stroke="#3C7C98" stroke-opacity="0.1"/>
<path d="M0 176.109C91.7554 121.455 322.351 44.939 510.691 176.109C746.116 340.071 1055.79 249.709 1140 176.109" stroke="#3C7C98" stroke-opacity="0.1"/>
<path d="M0 184.008C91.7554 129.354 322.351 52.8385 510.691 184.008C746.116 347.97 1055.79 257.608 1140 184.008" stroke="#3C7C98" stroke-opacity="0.1"/>
<path d="M0 191.906C91.7554 137.252 322.351 60.7369 510.691 191.906C746.116 355.868 1055.79 265.507 1140 191.906" stroke="#3C7C98" stroke-opacity="0.1"/>
<path d="M0 199.805C91.7554 145.151 322.351 68.6358 510.691 199.805C746.116 363.767 1055.79 273.406 1140 199.805" stroke="#3C7C98" stroke-opacity="0.1"/>
<path d="M0 207.704C91.7554 153.05 322.351 76.5343 510.691 207.704C746.116 371.666 1055.79 281.304 1140 207.704" stroke="#3C7C98" stroke-opacity="0.1"/>
<path d="M0 215.602C91.7554 160.948 322.351 84.4327 510.691 215.602C746.116 379.564 1055.79 289.203 1140 215.602" stroke="#3C7C98" stroke-opacity="0.1"/>
<path d="M0 223.501C91.7554 168.847 322.351 92.3316 510.691 223.501C746.116 387.463 1055.79 297.102 1140 223.501" stroke="#3C7C98" stroke-opacity="0.1"/>
<path d="M0 231.4C91.7554 176.746 322.351 100.23 510.691 231.4C746.116 395.362 1055.79 305 1140 231.4" stroke="#3C7C98" stroke-opacity="0.1"/>
<path d="M0 239.299C91.7554 184.645 322.351 108.129 510.691 239.299C746.116 403.261 1055.79 312.899 1140 239.299" stroke="#3C7C98" stroke-opacity="0.1"/>
<path d="M0 247.197C91.7554 192.543 322.351 116.028 510.691 247.197C746.116 411.159 1055.79 320.798 1140 247.197" stroke="#3C7C98" stroke-opacity="0.1"/>
<path d="M0 255.096C91.7554 200.442 322.351 123.927 510.691 255.096C746.116 419.058 1055.79 328.697 1140 255.096" stroke="#3C7C98" stroke-opacity="0.1"/>
<path d="M0 262.995C91.7554 208.341 322.351 131.826 510.691 262.995C746.116 426.957 1055.79 336.596 1140 262.995" stroke="#3C7C98" stroke-opacity="0.1"/>
<path d="M0 270.893C91.7554 216.239 322.351 139.723 510.691 270.893C746.116 434.855 1055.79 344.493 1140 270.893" stroke="#3C7C98" stroke-opacity="0.1"/>
</g>
</g>
<defs>
<clipPath id="clip0_6_2">
<rect width="1140" height="364" fill="white"/>
</clipPath>
</defs>
</svg>
